<svg width="32" height="32" viewBox="0 0 32 32" fill="none" xmlns="http://www.w3.org/2000/svg">
  <defs>
    <linearGradient id="grad1" x1="0%" y1="0%" x2="100%" y2="100%">
      <stop offset="0%" style="stop-color:#00ff88;stop-opacity:1" />
      <stop offset="100%" style="stop-color:#0066ff;stop-opacity:1" />
    </linearGradient>
    <linearGradient id="grad2" x1="0%" y1="0%" x2="100%" y2="100%">
      <stop offset="0%" style="stop-color:#ffffff;stop-opacity:0.9" />
      <stop offset="100%" style="stop-color:#ffffff;stop-opacity:0.6" />
    </linearGradient>
  </defs>
  
  <!-- Background circle with gradient -->
  <circle cx="16" cy="16" r="15" fill="url(#grad1)" stroke="#1a1a1a" stroke-width="2"/>
  
  <!-- Shield shape -->
  <path d="M16 6L10 9V16C10 20.4183 13.5817 24 18 24C22.4183 24 26 20.4183 26 16V9L20 6L16 6Z" fill="url(#grad2)" opacity="0.9"/>
  
  <!-- Inner shield accent -->
  <path d="M16 8L12 10V16C12 19.3137 14.6863 22 18 22C21.3137 22 24 19.3137 24 16V10L20 8L16 8Z" fill="url(#grad1)" opacity="0.3"/>
  
  <!-- Center dot -->
  <circle cx="18" cy="14" r="2" fill="#ffffff" opacity="0.8"/>
  
  <!-- Small accent dots -->
  <circle cx="14" cy="12" r="1" fill="#ffffff" opacity="0.6"/>
  <circle cx="22" cy="12" r="1" fill="#ffffff" opacity="0.6"/>
</svg>